<mxfile host="app.diagrams.net" modified="2023-05-17T08:07:26.895Z" agent="Mozilla/5.0 (Macintosh; Intel Mac OS X 10_15_7) AppleWebKit/537.36 (KHTML, like Gecko) Chrome/112.0.0.0 Safari/537.36" version="21.3.2" etag="TjKfpgUjE_CkyTFuK2M0" type="github">
  <diagram name="第 1 页" id="apC1ye8fUsyJZdHodrL8">
    <mxGraphModel>
      <root>
        <mxCell id="0" />
        <mxCell id="1" parent="0" />
      </root>
    </mxGraphModel>
  </diagram>
</mxfile>
